<svg width="182" height="54" viewBox="0 0 182 54" fill="none" xmlns="http://www.w3.org/2000/svg">
<path d="M175.525 53.5H6.37539C3.13825 53.5 0.5 50.8524 0.5 47.6104V6.3801C0.5 3.13784 3.13722 0.5 6.37539 0.5H175.525C178.772 0.5 181.5 3.14793 181.5 6.3801V47.6104C181.5 50.8423 178.771 53.5 175.525 53.5Z" stroke="black"/>
<path d="M40.6728 26.7084C40.6336 22.3573 44.2354 20.2405 44.4001 20.142C42.3603 17.1679 39.1986 16.7616 38.0875 16.7292C35.4321 16.4497 32.8563 18.3181 31.5036 18.3181C30.1239 18.3181 28.0408 16.7562 25.7958 16.8021C22.9068 16.8466 20.2041 18.5193 18.7218 21.1167C15.6627 26.4127 17.9442 34.1955 20.875 38.4763C22.3411 40.5729 24.0543 42.9138 26.2966 42.8314C28.4904 42.741 29.3098 41.4328 31.9572 41.4328C34.5802 41.4328 35.3497 42.8314 37.6366 42.7788C39.991 42.741 41.4733 40.6728 42.8881 38.5573C44.5824 36.1543 45.2628 33.7878 45.2898 33.6663C45.2344 33.6474 40.7173 31.9234 40.6728 26.7084Z" fill="black"/>
<path d="M36.3528 13.9132C37.5327 12.4377 38.34 10.4302 38.1159 8.39307C36.4081 8.46867 34.2724 9.57432 33.0426 11.0175C31.9545 12.2892 30.9825 14.3736 31.2336 16.3338C33.1519 16.4769 35.1216 15.3658 36.3528 13.9132Z" fill="black"/>
<path d="M72.4207 42.5303H69.3548L67.6754 37.2531H61.838L60.2383 42.5303H57.2534L63.0368 24.5645H66.6089L72.4207 42.5303ZM67.1692 35.0391L65.6504 30.3479C65.4898 29.8686 65.1887 28.74 64.7446 26.9634H64.6906C64.5137 27.7275 64.2289 28.8561 63.8374 30.3479L62.3456 35.0391H67.1692Z" fill="black"/>
<path d="M87.2937 35.8923C87.2937 38.0955 86.6984 39.837 85.5077 41.1154C84.4412 42.2535 83.1168 42.8218 81.536 42.8218C79.8296 42.8218 78.6038 42.2089 77.8572 40.9831H77.8032V47.8074H74.925V33.8389C74.925 32.4538 74.8886 31.0323 74.8184 29.5743H77.3496L77.5103 31.6277H77.5643C78.5241 30.0806 79.9808 29.3083 81.9356 29.3083C83.4638 29.3083 84.7395 29.9118 85.7601 31.12C86.7834 32.3296 87.2937 33.9199 87.2937 35.8923ZM84.3615 35.9976C84.3615 34.7367 84.078 33.6972 83.5083 32.8791C82.886 32.0259 82.0503 31.5993 81.0027 31.5993C80.2926 31.5993 79.6473 31.8369 79.0709 32.3053C78.4931 32.7778 78.1151 33.3948 77.9382 34.1589C77.8491 34.5153 77.8046 34.8069 77.8046 35.0364V37.1964C77.8046 38.1387 78.0935 38.9339 78.6713 39.5832C79.2491 40.2325 79.9997 40.5565 80.9231 40.5565C82.0071 40.5565 82.8509 40.138 83.4543 39.3037C84.0591 38.4681 84.3615 37.3665 84.3615 35.9976Z" fill="black"/>
<path d="M102.194 35.8923C102.194 38.0955 101.598 39.837 100.406 41.1154C99.3411 42.2535 98.0168 42.8218 96.4359 42.8218C94.7295 42.8218 93.5037 42.2089 92.7585 40.9831H92.7045V47.8074H89.8263V33.8389C89.8263 32.4538 89.7899 31.0323 89.7197 29.5743H92.2509L92.4116 31.6277H92.4656C93.4241 30.0806 94.8807 29.3083 96.8369 29.3083C98.3637 29.3083 99.6395 29.9118 100.663 31.12C101.682 32.3296 102.194 33.9199 102.194 35.8923ZM99.2615 35.9976C99.2615 34.7367 98.9766 33.6972 98.4069 32.8791C97.7846 32.0259 96.9516 31.5993 95.9027 31.5993C95.1912 31.5993 94.5473 31.8369 93.9695 32.3053C93.3917 32.7778 93.015 33.3948 92.8382 34.1589C92.7504 34.5153 92.7045 34.8069 92.7045 35.0364V37.1964C92.7045 38.1387 92.9934 38.9339 93.5685 39.5832C94.1463 40.2312 94.8969 40.5565 95.823 40.5565C96.9071 40.5565 97.7508 40.138 98.3543 39.3037C98.9591 38.4681 99.2615 37.3665 99.2615 35.9976Z" fill="black"/>
<path d="M118.853 37.4921C118.853 39.0203 118.322 40.2637 117.257 41.2235C116.086 42.2725 114.457 42.7963 112.363 42.7963C110.43 42.7963 108.88 42.4237 107.707 41.6771L108.374 39.2782C109.638 40.0423 111.024 40.4257 112.535 40.4257C113.619 40.4257 114.462 40.18 115.069 39.6913C115.672 39.2026 115.973 38.5465 115.973 37.7284C115.973 36.9994 115.725 36.3851 115.227 35.887C114.731 35.3888 113.904 34.9258 112.748 34.4978C109.602 33.3247 108.031 31.6061 108.031 29.3462C108.031 27.8693 108.582 26.6584 109.685 25.7161C110.784 24.7724 112.25 24.3013 114.083 24.3013C115.718 24.3013 117.076 24.5861 118.16 25.1545L117.441 27.5008C116.428 26.95 115.283 26.6746 114.002 26.6746C112.99 26.6746 112.198 26.9243 111.631 27.4211C111.152 27.8653 110.912 28.4066 110.912 29.0479C110.912 29.758 111.186 30.3452 111.737 30.8069C112.216 31.2335 113.087 31.6952 114.35 32.1934C115.896 32.8157 117.031 33.5434 117.762 34.3777C118.489 35.2093 118.853 36.2501 118.853 37.4921Z" fill="black"/>
<path d="M128.369 31.7355H125.196V38.0252C125.196 39.6249 125.755 40.4241 126.876 40.4241C127.39 40.4241 127.817 40.3796 128.154 40.2905L128.234 42.4761C127.667 42.6881 126.92 42.7947 125.995 42.7947C124.859 42.7947 123.97 42.4478 123.329 41.7552C122.691 41.0613 122.369 39.8976 122.369 38.2628V31.7328H120.479V29.5728H122.369V27.2009L125.196 26.3477V29.5728H128.369V31.7355Z" fill="black"/>
<path d="M142.683 35.9463C142.683 37.9375 142.113 39.5724 140.976 40.8508C139.784 42.1671 138.202 42.8232 136.23 42.8232C134.329 42.8232 132.816 42.1927 131.687 40.9318C130.558 39.6709 129.994 38.0793 129.994 36.1609C129.994 34.1535 130.575 32.5092 131.74 31.2307C132.902 29.9509 134.471 29.311 136.443 29.311C138.344 29.311 139.873 29.9415 141.028 31.2037C142.132 32.4282 142.683 34.009 142.683 35.9463ZM139.697 36.0394C139.697 34.8447 139.441 33.82 138.924 32.9655C138.321 31.9314 137.458 31.4157 136.34 31.4157C135.184 31.4157 134.305 31.9327 133.701 32.9655C133.184 33.8214 132.929 34.8622 132.929 36.0934C132.929 37.2882 133.184 38.3128 133.701 39.166C134.324 40.2001 135.193 40.7158 136.315 40.7158C137.414 40.7158 138.276 40.1893 138.899 39.139C139.429 38.2683 139.697 37.2328 139.697 36.0394Z" fill="black"/>
<path d="M152.038 32.1073C151.753 32.0546 151.45 32.0276 151.131 32.0276C150.118 32.0276 149.335 32.4097 148.785 33.1751C148.305 33.8501 148.065 34.7033 148.065 35.7334V42.5306H145.188L145.215 33.6557C145.215 32.1626 145.179 30.8032 145.107 29.5774H147.614L147.719 32.056H147.799C148.103 31.2041 148.582 30.5183 149.238 30.004C149.879 29.5409 150.572 29.3101 151.319 29.3101C151.585 29.3101 151.825 29.329 152.038 29.3627V32.1073Z" fill="black"/>
<path d="M164.911 35.4403C164.911 35.956 164.877 36.3907 164.805 36.7457H156.171C156.204 38.0255 156.622 39.0043 157.423 39.6793C158.151 40.2827 159.092 40.5851 160.248 40.5851C161.526 40.5851 162.692 40.3813 163.741 39.9722L164.192 41.9702C162.967 42.5048 161.519 42.7708 159.849 42.7708C157.841 42.7708 156.264 42.1795 155.116 40.9982C153.971 39.817 153.398 38.2307 153.398 36.2408C153.398 34.2874 153.931 32.6606 154.999 31.3633C156.117 29.9782 157.627 29.2856 159.528 29.2856C161.395 29.2856 162.809 29.9782 163.768 31.3633C164.528 32.4635 164.911 33.8243 164.911 35.4403ZM162.166 34.6937C162.185 33.8405 161.997 33.1034 161.607 32.4811C161.109 31.6805 160.343 31.2809 159.313 31.2809C158.372 31.2809 157.607 31.6711 157.022 32.4541C156.543 33.0764 156.258 33.823 156.171 34.6924H162.166V34.6937Z" fill="black"/>
<path d="M66.2175 13.5122C66.2175 15.1012 65.741 16.2973 64.7892 17.1005C63.9077 17.8417 62.6549 18.2129 61.0322 18.2129C60.2276 18.2129 59.5391 18.1778 58.9626 18.1076V9.42579C59.7146 9.30429 60.5246 9.24219 61.3994 9.24219C62.9451 9.24219 64.1102 9.57834 64.8959 10.2506C65.7761 11.0107 66.2175 12.0974 66.2175 13.5122ZM64.7258 13.5514C64.7258 12.5213 64.4531 11.7316 63.9077 11.1808C63.3623 10.6313 62.5658 10.3559 61.5168 10.3559C61.0713 10.3559 60.692 10.3856 60.3774 10.4477V17.0479C60.5516 17.0749 60.8702 17.087 61.3332 17.087C62.4159 17.087 63.2516 16.786 63.8402 16.1839C64.4288 15.5818 64.7258 14.7043 64.7258 13.5514Z" fill="black"/>
<path d="M74.1271 14.9C74.1271 15.8788 73.8477 16.6807 73.2888 17.3098C72.7029 17.9564 71.9266 18.2791 70.9573 18.2791C70.0231 18.2791 69.2793 17.9699 68.7244 17.3489C68.1709 16.7293 67.8942 15.9476 67.8942 15.0053C67.8942 14.0198 68.179 13.2112 68.7514 12.5834C69.3238 11.9557 70.0933 11.6411 71.0626 11.6411C71.9968 11.6411 72.7474 11.9503 73.3158 12.5699C73.8558 13.172 74.1271 13.9496 74.1271 14.9ZM72.6597 14.9459C72.6597 14.3587 72.5328 13.8551 72.2803 13.4353C71.9833 12.9277 71.5608 12.6739 71.0113 12.6739C70.443 12.6739 70.011 12.9277 69.714 13.4353C69.4602 13.8551 69.3346 14.3668 69.3346 14.9716C69.3346 15.5588 69.4615 16.0624 69.714 16.4822C70.0204 16.9898 70.447 17.2436 70.9978 17.2436C71.5378 17.2436 71.9617 16.9858 72.2668 16.4687C72.5287 16.0408 72.6597 15.5332 72.6597 14.9459Z" fill="black"/>
<path d="M84.7328 11.7705L82.7416 18.1344H81.4456L80.6207 15.371C80.4115 14.6811 80.2414 13.9953 80.1091 13.3149H80.0834C79.9606 14.0142 79.7905 14.6987 79.5718 15.371L78.6956 18.1344H77.3848L75.5123 11.7705H76.9663L77.6858 14.7959C77.86 15.5114 78.0031 16.1931 78.1178 16.8384H78.1435C78.2488 16.3065 78.4229 15.6288 78.6686 14.8094L79.5718 11.7719H80.7247L81.59 14.7446C81.7993 15.4695 81.9694 16.1675 82.1003 16.8398H82.1395C82.2353 16.185 82.3798 15.4871 82.5715 14.7446L83.3437 11.7719H84.7328V11.7705Z" fill="black"/>
<path d="M92.0672 18.1348H90.6524V14.4898C90.6524 13.3666 90.2258 12.805 89.3699 12.805C88.9501 12.805 88.6112 12.9589 88.348 13.268C88.0874 13.5772 87.9551 13.9417 87.9551 14.3588V18.1334H86.5403V13.5893C86.5403 13.0304 86.5228 12.4243 86.489 11.7682H87.7324L87.7985 12.7631H87.8377C88.0024 12.454 88.2481 12.1988 88.5707 11.995C88.9541 11.7574 89.3834 11.6372 89.8532 11.6372C90.4472 11.6372 90.9413 11.8289 91.3342 12.2137C91.8229 12.6848 92.0672 13.3882 92.0672 14.3224V18.1348Z" fill="black"/>
<path d="M95.9688 18.1345H94.5554V8.85059H95.9688V18.1345Z" fill="black"/>
<path d="M104.298 14.9C104.298 15.8788 104.019 16.6807 103.46 17.3098C102.874 17.9564 102.097 18.2791 101.129 18.2791C100.193 18.2791 99.4492 17.9699 98.8957 17.3489C98.3422 16.7293 98.0655 15.9476 98.0655 15.0053C98.0655 14.0198 98.3503 13.2112 98.9227 12.5834C99.4951 11.9557 100.265 11.6411 101.233 11.6411C102.168 11.6411 102.917 11.9503 103.487 12.5699C104.027 13.172 104.298 13.9496 104.298 14.9ZM102.83 14.9459C102.83 14.3587 102.703 13.8551 102.45 13.4353C102.155 12.9277 101.731 12.6739 101.183 12.6739C100.613 12.6739 100.181 12.9277 99.8853 13.4353C99.6315 13.8551 99.5059 14.3668 99.5059 14.9716C99.5059 15.5588 99.6328 16.0624 99.8853 16.4822C100.192 16.9898 100.618 17.2436 101.169 17.2436C101.709 17.2436 102.132 16.9858 102.437 16.4687C102.7 16.0408 102.83 15.5332 102.83 14.9459Z" fill="black"/>
<path d="M111.145 18.1346H109.875L109.77 17.4016H109.731C109.296 17.9861 108.676 18.2791 107.872 18.2791C107.271 18.2791 106.785 18.086 106.419 17.7026C106.087 17.3543 105.921 16.921 105.921 16.4066C105.921 15.629 106.245 15.0364 106.897 14.626C107.548 14.2156 108.463 14.0144 109.642 14.0239V13.9051C109.642 13.0667 109.201 12.6482 108.32 12.6482C107.692 12.6482 107.139 12.8062 106.661 13.1194L106.373 12.1906C106.965 11.8247 107.695 11.6411 108.556 11.6411C110.219 11.6411 111.054 12.5186 111.054 14.2736V16.6172C111.054 17.2531 111.085 17.7593 111.145 18.1346ZM109.677 15.9476V14.9662C108.116 14.9392 107.336 15.3671 107.336 16.2487C107.336 16.5808 107.425 16.8292 107.607 16.9952C107.789 17.1613 108.022 17.2436 108.298 17.2436C108.609 17.2436 108.899 17.1451 109.164 16.9493C109.43 16.7522 109.593 16.5025 109.654 16.196C109.669 16.1272 109.677 16.0435 109.677 15.9476Z" fill="black"/>
<path d="M119.185 18.1345H117.929L117.863 17.1126H117.824C117.423 17.8902 116.74 18.279 115.78 18.279C115.013 18.279 114.375 17.9779 113.868 17.3758C113.362 16.7737 113.11 15.9921 113.11 15.0322C113.11 14.0022 113.384 13.1679 113.934 12.5307C114.468 11.9367 115.121 11.6397 115.899 11.6397C116.753 11.6397 117.351 11.9272 117.692 12.5037H117.719V8.85059H119.135V16.42C119.135 17.0397 119.151 17.6107 119.185 18.1345ZM117.719 15.4507V14.3896C117.719 14.206 117.705 14.0575 117.679 13.9441C117.6 13.6039 117.428 13.3177 117.168 13.0869C116.904 12.856 116.587 12.7399 116.221 12.7399C115.694 12.7399 115.28 12.9492 114.977 13.369C114.676 13.7889 114.523 14.3248 114.523 14.9796C114.523 15.6087 114.668 16.119 114.958 16.5118C115.264 16.9303 115.677 17.1396 116.194 17.1396C116.659 17.1396 117.03 16.9654 117.312 16.6158C117.585 16.2931 117.719 15.9043 117.719 15.4507Z" fill="black"/>
<path d="M131.285 14.9C131.285 15.8788 131.006 16.6807 130.447 17.3098C129.861 17.9564 129.086 18.2791 128.115 18.2791C127.182 18.2791 126.438 17.9699 125.882 17.3489C125.329 16.7293 125.052 15.9476 125.052 15.0053C125.052 14.0198 125.337 13.2112 125.909 12.5834C126.482 11.9557 127.251 11.6411 128.222 11.6411C129.155 11.6411 129.907 11.9503 130.474 12.5699C131.014 13.172 131.285 13.9496 131.285 14.9ZM129.819 14.9459C129.819 14.3587 129.692 13.8551 129.44 13.4353C129.141 12.9277 128.72 12.6739 128.169 12.6739C127.602 12.6739 127.17 12.9277 126.872 13.4353C126.618 13.8551 126.492 14.3668 126.492 14.9716C126.492 15.5588 126.619 16.0624 126.872 16.4822C127.178 16.9898 127.605 17.2436 128.156 17.2436C128.696 17.2436 129.121 16.9858 129.426 16.4687C129.687 16.0408 129.819 15.5332 129.819 14.9459Z" fill="black"/>
<path d="M138.892 18.1348H137.479V14.4898C137.479 13.3666 137.052 12.805 136.195 12.805C135.775 12.805 135.436 12.9589 135.174 13.268C134.912 13.5772 134.781 13.9417 134.781 14.3588V18.1334H133.365V13.5893C133.365 13.0304 133.349 12.4243 133.315 11.7682H134.557L134.623 12.7631H134.662C134.829 12.454 135.074 12.1988 135.396 11.995C135.78 11.7574 136.208 11.6372 136.679 11.6372C137.272 11.6372 137.766 11.8289 138.159 12.2137C138.649 12.6848 138.892 13.3882 138.892 14.3224V18.1348Z" fill="black"/>
<path d="M148.414 12.8307H146.856V15.9222C146.856 16.7079 147.132 17.1007 147.68 17.1007C147.934 17.1007 148.145 17.0791 148.311 17.0346L148.347 18.1078C148.068 18.2131 147.701 18.2658 147.248 18.2658C146.69 18.2658 146.255 18.0957 145.94 17.7555C145.624 17.4153 145.468 16.8429 145.468 16.0396V12.8307H144.538V11.7709H145.468V10.6045L146.854 10.186V11.7696H148.412V12.8307H148.414Z" fill="black"/>
<path d="M155.904 18.1345H154.487V14.5165C154.487 13.3758 154.061 12.8047 153.206 12.8047C152.55 12.8047 152.102 13.1355 151.856 13.797C151.814 13.936 151.79 14.1061 151.79 14.3059V18.1332H150.377V8.85059H151.79V12.6859H151.817C152.263 11.988 152.901 11.6397 153.729 11.6397C154.315 11.6397 154.799 11.8314 155.184 12.2161C155.663 12.6954 155.904 13.4082 155.904 14.3505V18.1345Z" fill="black"/>
<path d="M163.63 14.6516C163.63 14.9054 163.611 15.1187 163.577 15.2928H159.334C159.353 15.9219 159.555 16.4012 159.948 16.7333C160.307 17.0303 160.77 17.1788 161.337 17.1788C161.965 17.1788 162.537 17.0789 163.053 16.8777L163.274 17.8605C162.671 18.1224 161.961 18.2534 161.139 18.2534C160.153 18.2534 159.377 17.9631 158.815 17.3826C158.251 16.8021 157.972 16.0232 157.972 15.0458C157.972 14.0859 158.232 13.2867 158.757 12.6495C159.305 11.9691 160.047 11.6289 160.982 11.6289C161.897 11.6289 162.593 11.9691 163.063 12.6495C163.442 13.1895 163.63 13.8578 163.63 14.6516ZM162.28 14.2857C162.29 13.8659 162.197 13.5041 162.005 13.199C161.76 12.8061 161.386 12.609 160.88 12.609C160.418 12.609 160.041 12.8007 159.754 13.1855C159.519 13.4919 159.38 13.8578 159.334 14.2857H162.28Z" fill="black"/>
</svg>
