<svg width="182" height="54" viewBox="0 0 182 54" fill="none" xmlns="http://www.w3.org/2000/svg">
<path d="M6.74074 53.3808H175.259C178.611 53.3808 181.374 50.6265 181.374 47.25V6.75C181.374 3.37351 178.611 0.619209 175.259 0.619209H6.74074C3.38872 0.619209 0.626495 3.37351 0.626495 6.75V47.25C0.626495 50.6265 3.38872 53.3808 6.74074 53.3808Z" stroke="black"/>
<path d="M92.2023 29.5941C89.0239 29.5941 86.4274 31.9849 86.4274 35.2834C86.4274 38.5553 89.0239 40.9711 92.2023 40.9711C95.3875 40.9711 97.984 38.5553 97.984 35.2834C97.984 31.9849 95.3875 29.5941 92.2023 29.5941ZM92.2023 38.7308C90.4583 38.7308 88.9579 37.3081 88.9579 35.2834C88.9579 33.2321 90.4583 31.8344 92.2023 31.8344C93.9463 31.8344 95.4534 33.2321 95.4534 35.2834C95.4534 37.3081 93.9463 38.7308 92.2023 38.7308ZM79.6021 29.5941C76.4169 29.5941 73.8271 31.9849 73.8271 35.2834C73.8271 38.5553 76.4169 40.9711 79.6021 40.9711C82.7855 40.9711 85.377 38.5553 85.377 35.2834C85.377 31.9849 82.7855 29.5941 79.6021 29.5941ZM79.6021 38.7308C77.8564 38.7308 76.3509 37.3081 76.3509 35.2834C76.3509 33.2321 77.8564 31.8344 79.6021 31.8344C81.346 31.8344 82.8464 33.2321 82.8464 35.2834C82.8464 37.3081 81.346 38.7308 79.6021 38.7308ZM64.6083 31.3379V33.7554H70.4491C70.2783 35.1062 69.8216 36.0993 69.1213 36.7915C68.2688 37.6274 66.9409 38.5553 64.6083 38.5553C61.0138 38.5553 58.199 35.688 58.199 32.1353C58.199 28.5826 61.0138 25.7154 64.6083 25.7154C66.5518 25.7154 67.966 26.4661 69.0097 27.4391L70.7333 25.7355C69.2735 24.3579 67.3316 23.2996 64.6083 23.2996C59.6791 23.2996 55.5366 27.2635 55.5366 32.1353C55.5366 37.0071 59.6791 40.9711 64.6083 40.9711C67.2724 40.9711 69.2735 40.1084 70.8467 38.4901C72.4587 36.8968 72.9611 34.6565 72.9611 32.8475C72.9611 32.2858 72.9137 31.7692 72.8291 31.3379H64.6083ZM125.92 33.212C125.444 31.9397 123.978 29.5941 120.991 29.5941C118.03 29.5941 115.566 31.8996 115.566 35.2834C115.566 38.47 118.005 40.9711 121.275 40.9711C123.919 40.9711 125.444 39.3778 126.072 38.4499L124.11 37.1576C123.455 38.1039 122.564 38.7308 121.275 38.7308C119.994 38.7308 119.076 38.1507 118.487 37.0071L126.185 33.859L125.92 33.212ZM118.071 35.1062C118.005 32.9127 119.795 31.7893 121.077 31.7893C122.082 31.7893 122.934 32.2858 123.218 32.9963L118.071 35.1062ZM111.814 40.625H114.345V23.9065H111.814V40.625ZM107.67 30.8614H107.585C107.017 30.196 105.933 29.5941 104.559 29.5941C101.677 29.5941 99.0412 32.0952 99.0412 35.3018C99.0412 38.4901 101.677 40.9711 104.559 40.9711C105.933 40.9711 107.017 40.3642 107.585 39.6787H107.67V40.4946C107.67 42.6697 106.494 43.8383 104.598 43.8383C103.052 43.8383 102.093 42.7349 101.697 41.807L99.4962 42.7148C100.131 44.2229 101.81 46.0786 104.598 46.0786C107.565 46.0786 110.068 44.3533 110.068 40.1552V29.9402H107.67V30.8614ZM104.776 38.7308C103.032 38.7308 101.572 37.288 101.572 35.3018C101.572 33.2973 103.032 31.8344 104.776 31.8344C106.494 31.8344 107.849 33.2973 107.849 35.3018C107.849 37.288 106.494 38.7308 104.776 38.7308ZM137.767 23.9065H131.715V40.625H134.239V34.2904H137.767C140.57 34.2904 143.319 32.2858 143.319 29.0976C143.319 25.911 140.563 23.9065 137.767 23.9065ZM137.833 31.9648H134.239V26.232H137.833C139.718 26.232 140.793 27.7785 140.793 29.0976C140.793 30.3916 139.718 31.9648 137.833 31.9648ZM153.434 29.5623C151.611 29.5623 149.715 30.3581 148.935 32.122L151.174 33.0498C151.656 32.122 152.543 31.821 153.48 31.821C154.789 31.821 156.117 32.5984 156.137 33.971V34.1466C155.681 33.8858 154.703 33.4996 153.5 33.4996C151.088 33.4996 148.63 34.812 148.63 37.2612C148.63 39.5015 150.606 40.9443 152.827 40.9443C154.525 40.9443 155.462 40.187 156.051 39.3059H156.137V40.5983H158.575V34.185C158.575 31.2208 156.335 29.5623 153.434 29.5623ZM153.13 38.7241C152.304 38.7241 151.154 38.3195 151.154 37.3081C151.154 36.014 152.588 35.5175 153.83 35.5175C154.941 35.5175 155.462 35.7599 156.137 36.0792C155.939 37.6274 154.591 38.7241 153.13 38.7241ZM167.455 29.9285L164.554 37.176H164.468L161.469 29.9285H158.747L163.254 40.0566L160.682 45.6924H163.32L170.263 29.9285H167.455ZM144.706 40.625H147.236V23.9065H144.706V40.625Z" fill="black"/>
<path d="M64.1668 14.2019C64.1668 15.3187 63.8285 16.2131 63.162 16.8802C62.3958 17.671 61.3978 18.0689 60.1748 18.0689C59.0059 18.0689 58.0079 17.6643 57.1892 16.8668C56.3688 16.0576 55.9595 15.0646 55.9595 13.8759C55.9595 12.6872 56.3688 11.6941 57.1892 10.8916C58.0079 10.0875 59.0059 9.68286 60.1748 9.68286C60.7567 9.68286 61.3115 9.80156 61.8409 10.0222C62.3687 10.2446 62.7984 10.5455 63.1096 10.9167L62.4025 11.6222C61.8596 10.9886 61.1204 10.6759 60.1748 10.6759C59.3222 10.6759 58.583 10.9702 57.9555 11.5637C57.3347 12.1589 57.0234 12.9296 57.0234 13.8759C57.0234 14.8221 57.3347 15.5996 57.9555 16.1947C58.583 16.7816 59.3222 17.0825 60.1748 17.0825C61.0798 17.0825 61.8409 16.7816 62.4414 16.1881C62.8373 15.7952 63.0622 15.2535 63.1214 14.5613H60.1748V13.595H64.1059C64.1533 13.804 64.1668 14.0063 64.1668 14.2019Z" fill="black" stroke="black" stroke-width="0.16" stroke-miterlimit="10"/>
<path d="M70.4035 10.8512H66.7109V13.3924H70.0398V14.3587H66.7109V16.9H70.4035V17.8847H65.6655V9.86646H70.4035V10.8512Z" fill="black" stroke="black" stroke-width="0.16" stroke-miterlimit="10"/>
<path d="M74.805 17.8847H73.7596V10.8512H71.4946V9.86646H77.0716V10.8512H74.805V17.8847Z" fill="black" stroke="black" stroke-width="0.16" stroke-miterlimit="10"/>
<path d="M81.1074 17.8847V9.86646H82.1511V17.8847H81.1074Z" fill="black" stroke="black" stroke-width="0.16" stroke-miterlimit="10"/>
<path d="M86.7776 17.8847H85.7407V10.8512H83.4673V9.86646H89.051V10.8512H86.7776V17.8847Z" fill="black" stroke="black" stroke-width="0.16" stroke-miterlimit="10"/>
<path d="M99.6096 16.8535C98.8095 17.6643 97.8183 18.0689 96.6359 18.0689C95.4467 18.0689 94.4555 17.6643 93.6554 16.8535C92.857 16.0443 92.4595 15.0512 92.4595 13.8759C92.4595 12.7006 92.857 11.7075 93.6554 10.8983C94.4555 10.0875 95.4467 9.68286 96.6359 9.68286C97.8115 9.68286 98.8027 10.0875 99.6028 10.905C100.408 11.7209 100.806 12.7073 100.806 13.8759C100.806 15.0512 100.408 16.0443 99.6096 16.8535ZM94.4284 16.1814C95.0306 16.7816 95.763 17.0825 96.6359 17.0825C97.5019 17.0825 98.2411 16.7816 98.8366 16.1814C99.4371 15.5812 99.7415 14.8104 99.7415 13.8759C99.7415 12.9413 99.4371 12.1706 98.8366 11.5704C98.2411 10.9702 97.5019 10.6693 96.6359 10.6693C95.763 10.6693 95.0306 10.9702 94.4284 11.5704C93.8279 12.1706 93.5235 12.9413 93.5235 13.8759C93.5235 14.8104 93.8279 15.5812 94.4284 16.1814Z" fill="black" stroke="black" stroke-width="0.16" stroke-miterlimit="10"/>
<path d="M102.272 17.8847V9.86646H103.541L107.485 16.1025H107.531L107.485 14.561V9.86646H108.529V17.8847H107.44L103.309 11.341H103.263L103.309 12.8892V17.8847H102.272Z" fill="black" stroke="black" stroke-width="0.16" stroke-miterlimit="10"/>
<path d="M14.1207 10.5837C13.7232 10.995 13.4932 11.6353 13.4932 12.4646V42.043C13.4932 42.8723 13.7232 43.5126 14.1207 43.9239L14.2188 44.0142L30.9887 27.4461V27.0548L14.2188 10.4868L14.1207 10.5837Z" fill="url(#paint0_linear_3529_10240)"/>
<path d="M36.5725 32.9712L30.9888 27.4457V27.0545L36.5793 21.529L36.7045 21.6009L43.3251 25.3241C45.2146 26.3807 45.2146 28.1195 43.3251 29.1828L36.7045 32.8993L36.5725 32.9712Z" fill="url(#paint1_linear_3529_10240)"/>
<path d="M36.7048 32.8993L30.9891 27.2501L14.1211 43.9235C14.7487 44.5756 15.772 44.6541 16.9358 44.0021L36.7048 32.8993Z" fill="url(#paint2_linear_3529_10240)"/>
<path d="M36.7048 21.6013L16.9358 10.4985C15.772 9.85315 14.7487 9.93172 14.1211 10.5837L30.9891 27.2505L36.7048 21.6013Z" fill="url(#paint3_linear_3529_10240)"/>
<defs>
<linearGradient id="paint0_linear_3529_10240" x1="29.4998" y1="42.3511" x2="7.0551" y2="19.6422" gradientUnits="userSpaceOnUse">
<stop stop-color="#00A0FF"/>
<stop offset="0.0066" stop-color="#00A1FF"/>
<stop offset="0.2601" stop-color="#00BEFF"/>
<stop offset="0.5122" stop-color="#00D2FF"/>
<stop offset="0.7604" stop-color="#00DFFF"/>
<stop offset="1" stop-color="#00E3FF"/>
</linearGradient>
<linearGradient id="paint1_linear_3529_10240" x1="45.7855" y1="27.2482" x2="13.0416" y2="27.2482" gradientUnits="userSpaceOnUse">
<stop stop-color="#FFE000"/>
<stop offset="0.4087" stop-color="#FFBD00"/>
<stop offset="0.7754" stop-color="#FFA500"/>
<stop offset="1" stop-color="#FF9C00"/>
</linearGradient>
<linearGradient id="paint2_linear_3529_10240" x1="33.5968" y1="24.1791" x2="3.15997" y2="-6.61598" gradientUnits="userSpaceOnUse">
<stop stop-color="#FF3A44"/>
<stop offset="1" stop-color="#C31162"/>
</linearGradient>
<linearGradient id="paint3_linear_3529_10240" x1="9.87507" y1="53.7645" x2="23.4665" y2="40.0133" gradientUnits="userSpaceOnUse">
<stop stop-color="#32A071"/>
<stop offset="0.0685" stop-color="#2DA771"/>
<stop offset="0.4762" stop-color="#15CF74"/>
<stop offset="0.8009" stop-color="#06E775"/>
<stop offset="1" stop-color="#00F076"/>
</linearGradient>
</defs>
</svg>
